<?xml version="1.0" encoding="utf-8"?>
<!-- Generator: Adobe Illustrator 24.1.0, SVG Export Plug-In . SVG Version: 6.00 Build 0)  -->
<svg version="1.1" id="Layer_1" xmlns="http://www.w3.org/2000/svg" xmlns:xlink="http://www.w3.org/1999/xlink" x="0px" y="0px"
	 viewBox="0 0 48 48" style="enable-background:new 0 0 48 48;" xml:space="preserve">
<style type="text/css">
	.st0{fill:#8DC63F;}
	.st1{fill:#006032;}
</style>
<g>
	<path class="st0" d="M34.31,21.14c-1.42-3.97-2.72-7.58-3.28-9.07c-1.51-4.03-4.53-3.95-4.53-3.95H2.41
		c-3.44,1.18-2.18,4.45-2.18,4.45s6.97,19.64,8.23,23.42c0,0,0.59,1.93,1.93,1.93s2.35-1.01,2.35-1.01l4.53-12.17
		c0,0,0.92-3.44,5.04-3.44S34.31,21.14,34.31,21.14z"/>
	<path class="st1" d="M12.73,36.93c0,0,3.19-8.56,4.53-12.17s5.37-3.61,5.37-3.61h11.67c1.51,4.03,5.2,14.61,5.2,14.61
		s0.59,2.01,1.85,2.01c1.26,0,2.43-1.01,2.43-1.01s-1.09,3.11-4.03,3.11s-26.45,0-26.45,0s-3.61-0.08-4.87-3.86
		C8.45,36.01,9.54,39.45,12.73,36.93z"/>
	<path class="st0" d="M34.31,21.14h10.74c0,0,4.28,0.5,2.52,5.54S43.8,36.76,43.8,36.76s-2.43,2.18-3.78,0.17L34.31,21.14z"/>
</g>
</svg>
